<svg width="14" height="14" viewBox="0 0 14 14" fill="none" xmlns="http://www.w3.org/2000/svg">
    <path d="M3.5 0.4375C3.5 0.321468 3.45391 0.210188 3.37186 0.128141C3.28981 0.0460936 3.17853 0 3.0625 0C2.94647 0 2.83519 0.0460936 2.75314 0.128141C2.67109 0.210188 2.625 0.321468 2.625 0.4375V0.875H1.75C1.28587 0.875 0.840752 1.05937 0.512563 1.38756C0.184374 1.71575 0 2.16087 0 2.625L0 3.5H14V2.625C14 2.16087 13.8156 1.71575 13.4874 1.38756C13.1592 1.05937 12.7141 0.875 12.25 0.875H11.375V0.4375C11.375 0.321468 11.3289 0.210188 11.2469 0.128141C11.1648 0.0460936 11.0535 0 10.9375 0C10.8215 0 10.7102 0.0460936 10.6281 0.128141C10.5461 0.210188 10.5 0.321468 10.5 0.4375V0.875H3.5V0.4375ZM14 12.25C14 12.7141 13.8156 13.1592 13.4874 13.4874C13.1592 13.8156 12.7141 14 12.25 14H1.75C1.28587 14 0.840752 13.8156 0.512563 13.4874C0.184374 13.1592 0 12.7141 0 12.25V4.375H14V12.25ZM9.81313 6.87313C9.86377 6.87558 9.91438 6.86772 9.9619 6.85002C10.0094 6.83233 10.0528 6.80517 10.0896 6.7702C10.1263 6.73522 10.1555 6.69315 10.1755 6.64655C10.1954 6.59994 10.2057 6.54977 10.2057 6.49906C10.2057 6.44836 10.1954 6.39818 10.1755 6.35158C10.1555 6.30497 10.1263 6.2629 10.0896 6.22793C10.0528 6.19295 10.0094 6.16579 9.9619 6.1481C9.91438 6.13041 9.86377 6.12255 9.81313 6.125C9.76359 6.12453 9.71445 6.13395 9.66859 6.15269C9.62273 6.17143 9.58107 6.19913 9.54603 6.23416C9.511 6.26919 9.48331 6.31085 9.46456 6.35671C9.44582 6.40257 9.43641 6.45171 9.43687 6.50125C9.43688 6.7095 9.60488 6.87313 9.81313 6.87313ZM10.1071 7.36575H9.51912V10.9576H10.1071V7.36575ZM4.0985 10.9576V8.94512H6.07688V8.41138H4.0985V6.82588H6.2545V6.29212H3.5V10.9576H4.0985ZM6.9825 10.9576H7.574V8.7325C7.574 8.24775 7.77262 7.85137 8.40788 7.85137C8.51725 7.85137 8.63363 7.85488 8.69575 7.8645V7.32812C8.62217 7.31707 8.5479 7.31122 8.4735 7.31062C7.96425 7.31062 7.69387 7.59062 7.588 7.80675H7.5705V7.36575H6.9825V10.9576Z"
          fill="white"/>
</svg>
