<svg width="14" height="14" viewBox="0 0 14 14" fill="none" xmlns="http://www.w3.org/2000/svg">
    <path d="M7 0C3.13418 0 0 3.13418 0 7C0 10.8658 3.13418 14 7 14C10.8658 14 14 10.8658 14 7C14 3.13418 10.8658 0 7 0ZM10.2308 8.07692H7C6.85719 8.07692 6.72023 8.02019 6.61925 7.91921C6.51827 7.81823 6.46154 7.68127 6.46154 7.53846V2.69231C6.46154 2.5495 6.51827 2.41254 6.61925 2.31156C6.72023 2.21058 6.85719 2.15385 7 2.15385C7.14281 2.15385 7.27977 2.21058 7.38075 2.31156C7.48173 2.41254 7.53846 2.5495 7.53846 2.69231V7H10.2308C10.3736 7 10.5105 7.05673 10.6115 7.15771C10.7125 7.25869 10.7692 7.39565 10.7692 7.53846C10.7692 7.68127 10.7125 7.81823 10.6115 7.91921C10.5105 8.02019 10.3736 8.07692 10.2308 8.07692Z"
          fill="#42A7E1"/>
</svg>
