<svg width="27" height="24" viewBox="0 0 27 24" fill="none" xmlns="http://www.w3.org/2000/svg">
    <path d="M24.8684 19.7647C25.4158 19.765 25.9422 19.9745 26.3383 20.3498C26.7345 20.725 26.9702 21.2374 26.9965 21.7806C27.0228 22.3238 26.8377 22.8562 26.4796 23.2676C26.1216 23.6789 25.6179 23.9376 25.073 23.9901L24.8684 24H2.13158C1.58417 23.9997 1.05784 23.7902 0.661661 23.415C0.265483 23.0397 0.029825 22.5273 0.00351815 21.9841C-0.0227887 21.4409 0.162273 20.9085 0.520355 20.4971C0.878436 20.0858 1.38209 19.8271 1.92695 19.7746L2.13158 19.7647H24.8684ZM24.8684 9.88235C25.4338 9.88235 25.9759 10.1055 26.3757 10.5026C26.7754 10.8997 27 11.4384 27 12C27 12.5616 26.7754 13.1003 26.3757 13.4974C25.9759 13.8945 25.4338 14.1176 24.8684 14.1176H2.13158C1.56625 14.1176 1.02407 13.8945 0.624325 13.4974C0.224576 13.1003 0 12.5616 0 12C0 11.4384 0.224576 10.8997 0.624325 10.5026C1.02407 10.1055 1.56625 9.88235 2.13158 9.88235H24.8684ZM24.8684 0C25.4338 0 25.9759 0.223109 26.3757 0.620245C26.7754 1.01738 27 1.55601 27 2.11765C27 2.67928 26.7754 3.21791 26.3757 3.61505C25.9759 4.01219 25.4338 4.23529 24.8684 4.23529H2.13158C1.56625 4.23529 1.02407 4.01219 0.624325 3.61505C0.224576 3.21791 0 2.67928 0 2.11765C0 1.55601 0.224576 1.01738 0.624325 0.620245C1.02407 0.223109 1.56625 0 2.13158 0H24.8684Z"
          fill="#4E5B7C"/>
</svg>
