<svg width="14" height="14" viewBox="0 0 14 14" fill="none" xmlns="http://www.w3.org/2000/svg">
    <path d="M12.6283 9.54705L10.6487 9.32103C10.416 9.2937 10.18 9.31947 9.95867 9.39641C9.7373 9.47335 9.53624 9.59946 9.37061 9.76526L7.93661 11.1993C5.72419 10.0741 3.92592 8.27578 2.80072 6.06335L4.24251 4.62155C4.57763 4.28643 4.74129 3.81882 4.68673 3.34342L4.46072 1.37945C4.41654 0.999266 4.23409 0.648605 3.9481 0.394233C3.66211 0.139862 3.29257 -0.000453781 2.90983 1.10254e-06H1.56156C0.680895 1.10254e-06 -0.0516913 0.732591 0.00286291 1.61326C0.415916 8.26891 5.73885 13.5841 12.3867 13.9971C13.2673 14.0517 13.9999 13.3191 13.9999 12.4384V11.0902C14.0077 10.303 13.4154 9.64057 12.6283 9.54705Z"
          fill="#42A7E1"/>
</svg>
