<svg width="30" height="42" viewBox="0 0 30 42" fill="none" xmlns="http://www.w3.org/2000/svg">
    <path d="M0 6C0 4.4087 0.632141 2.88258 1.75736 1.75736C2.88258 0.632141 4.4087 0 6 0H24C25.5913 0 27.1174 0.632141 28.2426 1.75736C29.3679 2.88258 30 4.4087 30 6V36C30 37.5913 29.3679 39.1174 28.2426 40.2426C27.1174 41.3679 25.5913 42 24 42H6C4.4087 42 2.88258 41.3679 1.75736 40.2426C0.632141 39.1174 0 37.5913 0 36V6ZM9 24C9.79565 24 10.5587 23.6839 11.1213 23.1213C11.6839 22.5587 12 21.7956 12 21C12 20.2044 11.6839 19.4413 11.1213 18.8787C10.5587 18.3161 9.79565 18 9 18C8.20435 18 7.44129 18.3161 6.87868 18.8787C6.31607 19.4413 6 20.2044 6 21C6 21.7956 6.31607 22.5587 6.87868 23.1213C7.44129 23.6839 8.20435 24 9 24Z"
          fill="#C3E2F5"/>
</svg>
