<svg width="16" height="14" viewBox="0 0 16 14" fill="none" xmlns="http://www.w3.org/2000/svg">
    <path d="M14.72 2.54545H1.92C1.75026 2.54545 1.58748 2.47841 1.46745 2.35907C1.34743 2.23973 1.28 2.07787 1.28 1.90909C1.28 1.74032 1.34743 1.57846 1.46745 1.45911C1.58748 1.33977 1.75026 1.27273 1.92 1.27273H12.8C12.9697 1.27273 13.1325 1.20568 13.2525 1.08634C13.3726 0.966999 13.44 0.805138 13.44 0.636364C13.44 0.467589 13.3726 0.305728 13.2525 0.186387C13.1325 0.0670454 12.9697 0 12.8 0H1.92C1.41078 0 0.922425 0.201136 0.562355 0.55916C0.202285 0.917184 0 1.40277 0 1.90909V12.0909C0 12.5972 0.202285 13.0828 0.562355 13.4408C0.922425 13.7989 1.41078 14 1.92 14H14.72C15.0595 14 15.385 13.8659 15.6251 13.6272C15.8651 13.3885 16 13.0648 16 12.7273V3.81818C16 3.48063 15.8651 3.15691 15.6251 2.91823C15.385 2.67955 15.0595 2.54545 14.72 2.54545ZM11.84 8.90909C11.6501 8.90909 11.4645 8.85311 11.3067 8.74822C11.1488 8.64333 11.0257 8.49425 10.9531 8.31983C10.8804 8.14541 10.8614 7.95349 10.8984 7.76832C10.9355 7.58316 11.0269 7.41308 11.1612 7.27958C11.2954 7.14608 11.4665 7.05517 11.6527 7.01834C11.8389 6.98151 12.032 7.00041 12.2074 7.07266C12.3828 7.14491 12.5327 7.26725 12.6382 7.42423C12.7437 7.5812 12.8 7.76575 12.8 7.95455C12.8 8.20771 12.6989 8.4505 12.5188 8.62951C12.3388 8.80852 12.0946 8.90909 11.84 8.90909Z"
          fill="white"/>
</svg>
